<svg id="visual" viewBox="0 0 900 900" width="900" height="900" xmlns="http://www.w3.org/2000/svg" xmlns:xlink="http://www.w3.org/1999/xlink" version="1.1" style="border-radius: 100%;">
    <path d="M0 172L8.3 166C16.7 160 33.3 148 50 140.5C66.7 133 83.3 130 100 128.5C116.7 127 133.3 127 150 128.5C166.7 130 183.3 133 200 131.5C216.7 130 233.3 124 250 130C266.7 136 283.3 154 300 158.5C316.7 163 333.3 154 350 149.5C366.7 145 383.3 145 400 142C416.7 139 433.3 133 450 130C466.7 127 483.3 127 500 127C516.7 127 533.3 127 550 130C566.7 133 583.3 139 600 145C616.7 151 633.3 157 650 158.5C666.7 160 683.3 157 700 154C716.7 151 733.3 148 750 148C766.7 148 783.3 151 800 154C816.7 157 833.3 160 850 160C866.7 160 883.3 157 891.7 155.5L900 154L900 0L891.7 0C883.3 0 866.7 0 850 0C833.3 0 816.7 0 800 0C783.3 0 766.7 0 750 0C733.3 0 716.7 0 700 0C683.3 0 666.7 0 650 0C633.3 0 616.7 0 600 0C583.3 0 566.7 0 550 0C533.3 0 516.7 0 500 0C483.3 0 466.7 0 450 0C433.3 0 416.7 0 400 0C383.3 0 366.7 0 350 0C333.3 0 316.7 0 300 0C283.3 0 266.7 0 250 0C233.3 0 216.7 0 200 0C183.3 0 166.7 0 150 0C133.3 0 116.7 0 100 0C83.3 0 66.7 0 50 0C33.3 0 16.7 0 8.3 0L0 0Z" fill="#a92da1"></path>
    <path d="M0 442L8.3 442C16.7 442 33.3 442 50 442C66.7 442 83.3 442 100 443.5C116.7 445 133.3 448 150 436C166.7 424 183.3 397 200 389.5C216.7 382 233.3 394 250 409C266.7 424 283.3 442 300 446.5C316.7 451 333.3 442 350 434.5C366.7 427 383.3 421 400 415C416.7 409 433.3 403 450 394C466.7 385 483.3 373 500 383.5C516.7 394 533.3 427 550 442C566.7 457 583.3 454 600 452.5C616.7 451 633.3 451 650 440.5C666.7 430 683.3 409 700 410.5C716.7 412 733.3 436 750 445C766.7 454 783.3 448 800 451C816.7 454 833.3 466 850 461.5C866.7 457 883.3 436 891.7 425.5L900 415L900 152L891.7 153.5C883.3 155 866.7 158 850 158C833.3 158 816.7 155 800 152C783.3 149 766.7 146 750 146C733.3 146 716.7 149 700 152C683.3 155 666.7 158 650 156.5C633.3 155 616.7 149 600 143C583.3 137 566.7 131 550 128C533.3 125 516.7 125 500 125C483.3 125 466.7 125 450 128C433.3 131 416.7 137 400 140C383.3 143 366.7 143 350 147.5C333.3 152 316.7 161 300 156.5C283.3 152 266.7 134 250 128C233.3 122 216.7 128 200 129.5C183.3 131 166.7 128 150 126.5C133.3 125 116.7 125 100 126.5C83.3 128 66.7 131 50 138.5C33.3 146 16.7 158 8.3 164L0 170Z" fill="#99229a"></path>
    <path d="M0 703L8.3 710.5C16.7 718 33.3 733 50 733C66.7 733 83.3 718 100 713.5C116.7 709 133.3 715 150 715C166.7 715 183.3 709 200 709C216.7 709 233.3 715 250 715C266.7 715 283.3 709 300 715C316.7 721 333.3 739 350 737.5C366.7 736 383.3 715 400 712C416.7 709 433.3 724 450 724C466.7 724 483.3 709 500 710.5C516.7 712 533.3 730 550 739C566.7 748 583.3 748 600 748C616.7 748 633.3 748 650 746.5C666.7 745 683.3 742 700 743.5C716.7 745 733.3 751 750 749.5C766.7 748 783.3 739 800 734.5C816.7 730 833.3 730 850 730C866.7 730 883.3 730 891.7 730L900 730L900 413L891.7 423.5C883.3 434 866.7 455 850 459.5C833.3 464 816.7 452 800 449C783.3 446 766.7 452 750 443C733.3 434 716.7 410 700 408.5C683.3 407 666.7 428 650 438.5C633.3 449 616.7 449 600 450.5C583.3 452 566.7 455 550 440C533.3 425 516.7 392 500 381.5C483.3 371 466.7 383 450 392C433.3 401 416.7 407 400 413C383.3 419 366.7 425 350 432.5C333.3 440 316.7 449 300 444.5C283.3 440 266.7 422 250 407C233.3 392 216.7 380 200 387.5C183.3 395 166.7 422 150 434C133.3 446 116.7 443 100 441.5C83.3 440 66.7 440 50 440C33.3 440 16.7 440 8.3 440L0 440Z" fill="#891694"></path>
    <path d="M0 901L8.3 901C16.7 901 33.3 901 50 901C66.7 901 83.3 901 100 901C116.7 901 133.3 901 150 901C166.7 901 183.3 901 200 901C216.7 901 233.3 901 250 901C266.7 901 283.3 901 300 901C316.7 901 333.3 901 350 901C366.7 901 383.3 901 400 901C416.7 901 433.3 901 450 901C466.7 901 483.3 901 500 901C516.7 901 533.3 901 550 901C566.7 901 583.3 901 600 901C616.7 901 633.3 901 650 901C666.7 901 683.3 901 700 901C716.7 901 733.3 901 750 901C766.7 901 783.3 901 800 901C816.7 901 833.3 901 850 901C866.7 901 883.3 901 891.7 901L900 901L900 728L891.7 728C883.3 728 866.7 728 850 728C833.3 728 816.7 728 800 732.5C783.3 737 766.7 746 750 747.5C733.3 749 716.7 743 700 741.5C683.3 740 666.7 743 650 744.5C633.3 746 616.7 746 600 746C583.3 746 566.7 746 550 737C533.3 728 516.7 710 500 708.5C483.3 707 466.7 722 450 722C433.3 722 416.7 707 400 710C383.3 713 366.7 734 350 735.5C333.3 737 316.7 719 300 713C283.3 707 266.7 713 250 713C233.3 713 216.7 707 200 707C183.3 707 166.7 713 150 713C133.3 713 116.7 707 100 711.5C83.3 716 66.7 731 50 731C33.3 731 16.7 716 8.3 708.5L0 701Z" fill="#79068d"></path>
</svg>
