<svg version="1.2" xmlns="http://www.w3.org/2000/svg" viewBox="0 0 24 24" width="512" height="512">
	<title>svgviewer-output (2)-svg</title>
	<style>
		.s0 { fill: #ffffff } 
	</style>
	<g id="Layer">
		<path id="Layer" fill-rule="evenodd" class="s0" d="m21 11c0 2.8-2.2 5-5 5h-1.8c-0.8 0-1.5 0.7-1.5 1.5 0 0.4 0.2 0.7 0.4 1 0.2 0.3 0.4 0.6 0.4 1 0 0.8-0.7 1.5-1.5 1.5-5 0-9-4-9-9 0-5 4-9 9-9 5 0 9 3.6 9 8zm-13-0.5c0-0.8-0.7-1.5-1.5-1.5-0.8 0-1.5 0.7-1.5 1.5 0 0.8 0.7 1.5 1.5 1.5 0.8 0 1.5-0.7 1.5-1.5zm3-4c0-0.8-0.7-1.5-1.5-1.5-0.8 0-1.5 0.7-1.5 1.5 0 0.8 0.7 1.5 1.5 1.5 0.8 0 1.5-0.7 1.5-1.5zm5 0c0-0.8-0.7-1.5-1.5-1.5-0.8 0-1.5 0.7-1.5 1.5 0 0.8 0.7 1.5 1.5 1.5 0.8 0 1.5-0.7 1.5-1.5zm3 4c0-0.8-0.7-1.5-1.5-1.5-0.8 0-1.5 0.7-1.5 1.5 0 0.8 0.7 1.5 1.5 1.5 0.8 0 1.5-0.7 1.5-1.5z"/>
	</g>
</svg>