<svg version="1.1" id="Layer_1" xmlns="http://www.w3.org/2000/svg" xmlns:xlink="http://www.w3.org/1999/xlink" x="0px" y="0px"
	 width="100%" viewBox="0 0 454 355" enable-background="new 0 0 454 355" xml:space="preserve">
<path fill="#DADCE0" opacity="1.000000" stroke="none" 
	d="
M455.000000,9.000005 
	C455.000000,121.689308 455.000000,234.378616 454.661835,347.570251 
	C451.882446,350.715088 449.441223,353.357544 447.000000,356.000000 
	C301.310699,356.000000 155.621384,356.000000 9.417364,355.666351 
	C6.268428,352.888489 3.634211,350.444244 0.999997,348.000000 
	C1.000000,235.310699 1.000000,122.621391 1.337890,9.428965 
	C3.783853,6.283898 5.891926,3.641949 8.000000,1.000000 
	C154.355972,1.000000 300.711945,1.000000 447.553406,1.347747 
	C450.359253,4.130333 452.679626,6.565171 455.000000,9.000005 
M228.500000,353.000000 
	C297.998474,353.000000 367.497345,352.886444 436.994934,353.133270 
	C446.458069,353.166870 451.249512,347.119324 451.233582,338.843140 
	C451.047760,242.345413 451.116028,145.847198 451.105164,49.349098 
	C451.104980,47.587372 450.958405,45.825665 450.887268,44.223946 
	C301.918549,44.223946 153.540817,44.223946 5.135668,44.223946 
	C5.025501,45.337105 4.903657,45.993660 4.903594,46.650223 
	C4.894166,144.814926 4.879129,242.979614 4.919615,341.144318 
	C4.922897,349.103699 9.051375,352.994232 17.004166,352.995026 
	C87.169441,353.001892 157.334717,352.999603 228.500000,353.000000 
M47.500000,39.894154 
	C179.283310,39.894196 311.066620,39.894253 442.849945,39.894039 
	C444.349365,39.894035 445.855988,39.795902 447.346710,39.908878 
	C450.190613,40.124405 451.157257,38.829975 451.091583,36.072330 
	C450.960724,30.577564 451.057983,25.077435 451.055908,19.579523 
	C451.051239,7.224003 447.763947,3.944303 435.369965,3.944210 
	C297.089081,3.943172 158.808167,3.943525 20.527271,3.944052 
	C19.027851,3.944058 17.527472,3.917991 16.029177,3.961034 
	C9.483438,4.149084 5.104807,8.405888 4.986062,14.944462 
	C4.862050,21.773020 5.113036,28.611044 4.878096,35.433842 
	C4.755017,39.008106 6.096066,39.999142 9.514823,39.955318 
	C21.841452,39.797287 34.171341,39.893600 47.500000,39.894154 
z"/>
<path fill="#FEFEFE" opacity="1.000000" stroke="none" 
	d="
M0.999997,348.494751 
	C3.634211,350.444244 6.268428,352.888489 8.951323,355.666351 
	C6.417543,356.000000 3.835087,356.000000 1.000000,356.000000 
	C1.000000,353.666077 1.000000,351.327789 0.999997,348.494751 
z"/>
<path fill="#FEFEFE" opacity="1.000000" stroke="none" 
	d="
M447.494751,356.000000 
	C449.441223,353.357544 451.882446,350.715088 454.661835,348.036316 
	C455.000000,350.582458 455.000000,353.164917 455.000000,356.000000 
	C452.666077,356.000000 450.327789,356.000000 447.494751,356.000000 
z"/>
<path fill="#FEFEFE" opacity="1.000000" stroke="none" 
	d="
M455.000000,8.505272 
	C452.679626,6.565171 450.359253,4.130333 448.019440,1.347747 
	C450.254578,1.000000 452.509125,1.000000 455.000000,1.000000 
	C455.000000,3.334326 455.000000,5.672430 455.000000,8.505272 
z"/>
<path fill="#FEFEFE" opacity="1.000000" stroke="none" 
	d="
M7.502095,1.000000 
	C5.891926,3.641949 3.783853,6.283898 1.337890,8.962923 
	C1.000000,6.424517 1.000000,3.849033 1.000000,1.000000 
	C2.997643,1.000000 5.000917,1.000000 7.502095,1.000000 
z"/>
<path fill="#5F6368" opacity="1.000000" stroke="none" 
	d="
M228.000000,353.000000 
	C157.334717,352.999603 87.169441,353.001892 17.004166,352.995026 
	C9.051375,352.994232 4.922897,349.103699 4.919615,341.144318 
	C4.879129,242.979614 4.894166,144.814926 4.903594,46.650223 
	C4.903657,45.993660 5.025501,45.337105 5.135668,44.223946 
	C153.540817,44.223946 301.918549,44.223946 450.887268,44.223946 
	C450.958405,45.825665 451.104980,47.587372 451.105164,49.349098 
	C451.116028,145.847198 451.047760,242.345413 451.233582,338.843140 
	C451.249512,347.119324 446.458069,353.166870 436.994934,353.133270 
	C367.497345,352.886444 297.998474,353.000000 228.000000,353.000000 
M100.076416,197.099533 
	C87.716347,197.135925 75.356285,197.172318 62.513302,197.176407 
	C62.166664,197.351593 62.049576,197.625076 62.027855,198.888229 
	C62.027855,200.810989 62.027855,202.733749 62.027855,204.724213 
	C75.640663,204.724213 88.648476,204.724213 101.816322,204.724213 
	C101.816322,202.260345 101.816322,200.129547 101.818604,197.524353 
	C101.638512,197.181885 101.368080,197.080627 100.076416,197.099533 
M62.513264,297.176392 
	C62.166641,297.351624 62.049564,297.625122 62.027855,298.888306 
	C62.027855,300.811066 62.027855,302.733826 62.027855,304.724243 
	C75.640717,304.724243 88.648514,304.724243 101.816315,304.724243 
	C101.816315,302.260315 101.816315,300.129517 101.818611,297.524353 
	C101.638512,297.181885 101.368080,297.080627 100.076416,297.099518 
	C87.716339,297.135925 75.356270,297.172302 62.513264,297.176392 
M255.065140,150.122589 
	C197.495621,150.122589 139.926102,150.122589 82.281120,150.122589 
	C82.281120,153.080536 82.281120,155.336426 82.281120,157.754532 
	C140.591949,157.754532 198.622971,157.754532 256.835114,157.754532 
	C256.835114,155.284958 256.835114,153.147125 256.823517,150.527420 
	C256.636780,150.181183 256.360992,150.081635 255.065140,150.122589 
M225.500626,274.000000 
	C219.409210,274.000000 213.317810,274.000000 207.285217,274.000000 
	C207.285217,277.014252 207.285217,279.277191 207.285217,281.708649 
	C270.567230,281.708649 333.565247,281.708649 396.621307,281.708649 
	C396.621307,279.034668 396.621307,276.661835 396.621307,274.000000 
	C339.663300,274.000000 283.081879,274.000000 225.500626,274.000000 
M153.500000,256.000000 
	C179.921509,256.000000 206.343018,256.000000 232.690643,256.000000 
	C232.690643,252.960052 232.690643,250.697968 232.690643,248.387146 
	C182.001877,248.387146 131.621628,248.387146 81.309341,248.387146 
	C81.309341,251.039932 81.309341,253.302002 81.309341,256.000000 
	C105.242737,256.000000 128.871368,256.000000 153.500000,256.000000 
M266.501343,256.000000 
	C304.544189,256.000000 342.587036,256.000000 380.591003,256.000000 
	C380.591003,252.969910 380.591003,250.602417 380.591003,248.408585 
	C336.524109,248.408585 292.865753,248.408585 249.315247,248.408585 
	C249.315247,251.079132 249.315247,253.337234 249.315247,256.000000 
	C254.914993,256.000000 260.208527,256.000000 266.501343,256.000000 
M348.500000,158.000000 
	C359.235260,158.000000 369.970490,158.000000 380.618744,158.000000 
	C380.618744,154.914459 380.618744,152.673874 380.618744,150.419769 
	C343.263733,150.419769 306.287994,150.419769 269.380859,150.419769 
	C269.380859,153.084839 269.380859,155.325409 269.380859,158.000000 
	C295.670441,158.000000 321.585236,158.000000 348.500000,158.000000 
M153.500000,274.000000 
	C129.456223,274.000000 105.412460,274.000000 81.349945,274.000000 
	C81.349945,277.034576 81.349945,279.273438 81.349945,281.608337 
	C118.673050,281.608337 155.648544,281.608337 192.650452,281.608337 
	C192.650452,278.972656 192.650452,276.732483 192.650452,274.000000 
	C179.706894,274.000000 167.103439,274.000000 153.500000,274.000000 
M117.495735,124.068939 
	C98.787109,124.068939 80.078491,124.068939 61.418999,124.068939 
	C61.418999,127.147964 61.418999,129.384232 61.418999,131.728378 
	C85.317413,131.728378 108.829742,131.728378 132.416092,131.728378 
	C132.416092,129.033890 132.416092,126.694946 132.416092,124.069054 
	C127.450775,124.069054 122.972191,124.069054 117.495735,124.068939 
M92.528717,182.000000 
	C112.241188,182.000000 131.953659,182.000000 151.578308,182.000000 
	C151.578308,178.950394 151.578308,176.579651 151.578308,174.252975 
	C128.278793,174.252975 105.400345,174.252975 82.330353,174.252975 
	C82.330353,176.880447 82.330353,179.249695 82.330353,182.000000 
	C85.617241,182.000000 88.579857,182.000000 92.528717,182.000000 
M165.842651,174.019348 
	C161.640915,174.270142 162.922409,177.553238 163.262131,179.605591 
	C163.424988,180.589493 165.768677,181.886566 167.132919,181.896347 
	C187.568909,182.043106 208.006378,181.966446 228.443192,182.035416 
	C231.326508,182.045151 233.052582,181.689865 233.106781,178.073608 
	C233.166763,174.071030 231.057297,173.957947 228.088577,173.967255 
	C207.651733,174.031433 187.214600,174.002472 165.842651,174.019348 
M289.499969,173.999878 
	C273.778442,173.999878 258.056915,173.999878 242.407257,173.999878 
	C242.407257,177.048798 242.407257,179.412842 242.407257,181.576996 
	C265.813477,181.576996 288.799957,181.576996 311.662354,181.576996 
	C311.662354,178.897797 311.662354,176.645935 311.662354,173.999878 
	C304.394989,173.999878 297.447418,173.999878 289.499969,173.999878 
M74.509239,106.000000 
	C83.237770,106.000000 91.966301,106.000000 100.763443,106.000000 
	C100.763443,103.059219 100.763443,100.802902 100.763443,98.274521 
	C87.521263,98.274521 74.516090,98.274521 61.331451,98.274521 
	C61.331451,100.889496 61.331451,103.255585 61.331451,106.000000 
	C65.608917,106.000000 69.561050,106.000000 74.509239,106.000000 
M72.525368,229.808182 
	C81.925278,229.808182 91.325188,229.808182 100.670692,229.808182 
	C100.670692,226.742111 100.670692,224.491959 100.670692,222.211685 
	C87.321434,222.211685 74.303825,222.211685 61.333984,222.211685 
	C61.333984,224.867966 61.333984,227.107635 61.333984,229.807983 
	C64.951736,229.807983 68.243774,229.807983 72.525368,229.808182 
z"/>
<path fill="#9AA0A6" opacity="1.000000" stroke="none" 
	d="
M47.000000,39.894001 
	C34.171341,39.893600 21.841452,39.797287 9.514823,39.955318 
	C6.096066,39.999142 4.755017,39.008106 4.878096,35.433842 
	C5.113036,28.611044 4.862050,21.773020 4.986062,14.944462 
	C5.104807,8.405888 9.483438,4.149084 16.029177,3.961034 
	C17.527472,3.917991 19.027851,3.944058 20.527271,3.944052 
	C158.808167,3.943525 297.089081,3.943172 435.369965,3.944210 
	C447.763947,3.944303 451.051239,7.224003 451.055908,19.579523 
	C451.057983,25.077435 450.960724,30.577564 451.091583,36.072330 
	C451.157257,38.829975 450.190613,40.124405 447.346710,39.908878 
	C445.855988,39.795902 444.349365,39.894035 442.849945,39.894039 
	C311.066620,39.894253 179.283310,39.894196 47.000000,39.894001 
M430.384460,17.003454 
	C427.328522,16.660683 425.750580,18.530836 426.269531,21.055706 
	C426.626617,22.792973 428.610809,25.311596 430.017456,25.413441 
	C431.518890,25.522152 434.278595,23.356251 434.489441,21.894812 
	C434.696045,20.462971 432.385956,18.668015 430.384460,17.003454 
M404.533142,22.837278 
	C406.273163,23.519331 408.384003,25.140615 409.656342,24.638226 
	C411.141724,24.051723 412.350616,21.708954 412.734253,19.924927 
	C412.881042,19.242432 410.491852,17.300596 409.122803,17.147959 
	C405.808777,16.778481 403.738586,18.401878 404.533142,22.837278 
z"/>
<path fill="#DADCE0" opacity="1.000000" stroke="none" 
	d="
M226.000549,274.000000 
	C283.081879,274.000000 339.663300,274.000000 396.621307,274.000000 
	C396.621307,276.661835 396.621307,279.034668 396.621307,281.708649 
	C333.565247,281.708649 270.567230,281.708649 207.285217,281.708649 
	C207.285217,279.277191 207.285217,277.014252 207.285217,274.000000 
	C213.317810,274.000000 219.409210,274.000000 226.000549,274.000000 
z"/>
<path fill="#DADCE0" opacity="1.000000" stroke="none" 
	d="
M256.835114,151.009277 
	C256.835114,153.147125 256.835114,155.284958 256.835114,157.754532 
	C198.622971,157.754532 140.591949,157.754532 82.281120,157.754532 
	C82.281120,155.336426 82.281120,153.080536 82.281120,150.122589 
	C139.926102,150.122589 197.495621,150.122589 255.639923,150.335892 
	C256.391968,150.742432 256.598755,150.895798 256.835114,151.009277 
z"/>
<path fill="#FCC116" opacity="1.000000" stroke="none" 
	d="
M153.000000,256.000000 
	C128.871368,256.000000 105.242737,256.000000 81.309341,256.000000 
	C81.309341,253.302002 81.309341,251.039932 81.309341,248.387146 
	C131.621628,248.387146 182.001877,248.387146 232.690643,248.387146 
	C232.690643,250.697968 232.690643,252.960052 232.690643,256.000000 
	C206.343018,256.000000 179.921509,256.000000 153.000000,256.000000 
z"/>
<path fill="#DADCE0" opacity="1.000000" stroke="none" 
	d="
M266.001709,256.000000 
	C260.208527,256.000000 254.914993,256.000000 249.315247,256.000000 
	C249.315247,253.337234 249.315247,251.079132 249.315247,248.408585 
	C292.865753,248.408585 336.524109,248.408585 380.591003,248.408585 
	C380.591003,250.602417 380.591003,252.969910 380.591003,256.000000 
	C342.587036,256.000000 304.544189,256.000000 266.001709,256.000000 
z"/>
<path fill="#4285F4" opacity="1.000000" stroke="none" 
	d="
M348.000000,158.000000 
	C321.585236,158.000000 295.670441,158.000000 269.380859,158.000000 
	C269.380859,155.325409 269.380859,153.084839 269.380859,150.419769 
	C306.287994,150.419769 343.263733,150.419769 380.618744,150.419769 
	C380.618744,152.673874 380.618744,154.914459 380.618744,158.000000 
	C369.970490,158.000000 359.235260,158.000000 348.000000,158.000000 
z"/>
<path fill="#4285F4" opacity="1.000000" stroke="none" 
	d="
M154.000000,274.000000 
	C167.103439,274.000000 179.706894,274.000000 192.650452,274.000000 
	C192.650452,276.732483 192.650452,278.972656 192.650452,281.608337 
	C155.648544,281.608337 118.673050,281.608337 81.349945,281.608337 
	C81.349945,279.273438 81.349945,277.034576 81.349945,274.000000 
	C105.412460,274.000000 129.456223,274.000000 154.000000,274.000000 
z"/>
<path fill="#EA4335" opacity="1.000000" stroke="none" 
	d="
M117.994675,124.069000 
	C122.972191,124.069054 127.450775,124.069054 132.416092,124.069054 
	C132.416092,126.694946 132.416092,129.033890 132.416092,131.728378 
	C108.829742,131.728378 85.317413,131.728378 61.418999,131.728378 
	C61.418999,129.384232 61.418999,127.147964 61.418999,124.068939 
	C80.078491,124.068939 98.787109,124.068939 117.994675,124.069000 
z"/>
<path fill="#DADCE0" opacity="1.000000" stroke="none" 
	d="
M92.035599,182.000000 
	C88.579857,182.000000 85.617241,182.000000 82.330353,182.000000 
	C82.330353,179.249695 82.330353,176.880447 82.330353,174.252975 
	C105.400345,174.252975 128.278793,174.252975 151.578308,174.252975 
	C151.578308,176.579651 151.578308,178.950394 151.578308,182.000000 
	C131.953659,182.000000 112.241188,182.000000 92.035599,182.000000 
z"/>
<path fill="#34A853" opacity="1.000000" stroke="none" 
	d="
M166.310104,174.011414 
	C187.214600,174.002472 207.651733,174.031433 228.088577,173.967255 
	C231.057297,173.957947 233.166763,174.071030 233.106781,178.073608 
	C233.052582,181.689865 231.326508,182.045151 228.443192,182.035416 
	C208.006378,181.966446 187.568909,182.043106 167.132919,181.896347 
	C165.768677,181.886566 163.424988,180.589493 163.262131,179.605591 
	C162.922409,177.553238 161.640915,174.270142 166.310104,174.011414 
z"/>
<path fill="#DADCE0" opacity="1.000000" stroke="none" 
	d="
M289.999939,173.999878 
	C297.447418,173.999878 304.394989,173.999878 311.662354,173.999878 
	C311.662354,176.645935 311.662354,178.897797 311.662354,181.576996 
	C288.799957,181.576996 265.813477,181.576996 242.407257,181.576996 
	C242.407257,179.412842 242.407257,177.048798 242.407257,173.999878 
	C258.056915,173.999878 273.778442,173.999878 289.999939,173.999878 
z"/>
<path fill="#DADCE0" opacity="1.000000" stroke="none" 
	d="
M74.011215,106.000000 
	C69.561050,106.000000 65.608917,106.000000 61.331451,106.000000 
	C61.331451,103.255585 61.331451,100.889496 61.331451,98.274521 
	C74.516090,98.274521 87.521263,98.274521 100.763443,98.274521 
	C100.763443,100.802902 100.763443,103.059219 100.763443,106.000000 
	C91.966301,106.000000 83.237770,106.000000 74.011215,106.000000 
z"/>
<path fill="#DADCE0" opacity="1.000000" stroke="none" 
	d="
M72.030594,229.808075 
	C68.243774,229.807983 64.951736,229.807983 61.333984,229.807983 
	C61.333984,227.107635 61.333984,224.867966 61.333984,222.211685 
	C74.303825,222.211685 87.321434,222.211685 100.670692,222.211685 
	C100.670692,224.491959 100.670692,226.742111 100.670692,229.808182 
	C91.325188,229.808182 81.925278,229.808182 72.030594,229.808075 
z"/>
<path fill="#DADCE0" opacity="1.000000" stroke="none" 
	d="
M101.816315,297.998718 
	C101.816315,300.129517 101.816315,302.260315 101.816315,304.724243 
	C88.648514,304.724243 75.640717,304.724243 62.027855,304.724243 
	C62.027855,302.733826 62.027855,300.811066 62.260986,298.341736 
	C62.706120,297.637878 62.873478,297.442383 62.996193,297.208710 
	C75.356270,297.172302 87.716339,297.135925 100.646103,297.319061 
	C101.383575,297.734222 101.583748,297.887604 101.816315,297.998718 
z"/>
<path fill="#DADCE0" opacity="1.000000" stroke="none" 
	d="
M101.816322,197.998749 
	C101.816322,200.129547 101.816322,202.260345 101.816322,204.724213 
	C88.648476,204.724213 75.640663,204.724213 62.027855,204.724213 
	C62.027855,202.733749 62.027855,200.810989 62.261002,198.341675 
	C62.706097,197.637833 62.873451,197.442352 62.996216,197.208694 
	C75.356285,197.172318 87.716347,197.135925 100.646133,197.319077 
	C101.383606,197.734283 101.583763,197.887665 101.816322,197.998749 
z"/>
<path fill="#CCCED2" opacity="1.000000" stroke="none" 
	d="
M101.817459,197.761551 
	C101.583763,197.887665 101.383606,197.734283 101.111588,197.379608 
	C101.368080,197.080627 101.638512,197.181885 101.817459,197.761551 
z"/>
<path fill="#CCCED2" opacity="1.000000" stroke="none" 
	d="
M62.754761,197.192551 
	C62.873451,197.442352 62.706097,197.637833 62.328091,197.895996 
	C62.049576,197.625076 62.166664,197.351593 62.754761,197.192551 
z"/>
<path fill="#CCCED2" opacity="1.000000" stroke="none" 
	d="
M62.754730,297.192566 
	C62.873478,297.442383 62.706120,297.637878 62.328075,297.896027 
	C62.049564,297.625122 62.166641,297.351624 62.754730,297.192566 
z"/>
<path fill="#C6C9CD" opacity="1.000000" stroke="none" 
	d="
M256.829315,150.768341 
	C256.598755,150.895798 256.391968,150.742432 256.105408,150.388992 
	C256.360992,150.081635 256.636780,150.181183 256.829315,150.768341 
z"/>
<path fill="#CCCED2" opacity="1.000000" stroke="none" 
	d="
M101.817459,297.761536 
	C101.583748,297.887604 101.383575,297.734222 101.111557,297.379578 
	C101.368080,297.080627 101.638512,297.181885 101.817459,297.761536 
z"/>
<path fill="#D8DADE" opacity="1.000000" stroke="none" 
	d="
M430.782471,17.017941 
	C432.385956,18.668015 434.696045,20.462971 434.489441,21.894812 
	C434.278595,23.356251 431.518890,25.522152 430.017456,25.413441 
	C428.610809,25.311596 426.626617,22.792973 426.269531,21.055706 
	C425.750580,18.530836 427.328522,16.660683 430.782471,17.017941 
z"/>
<path fill="#D8DADE" opacity="1.000000" stroke="none" 
	d="
M404.359344,22.487320 
	C403.738586,18.401878 405.808777,16.778481 409.122803,17.147959 
	C410.491852,17.300596 412.881042,19.242432 412.734253,19.924927 
	C412.350616,21.708954 411.141724,24.051723 409.656342,24.638226 
	C408.384003,25.140615 406.273163,23.519331 404.359344,22.487320 
z"/>
</svg>